:SAMPLES-PER-SECOND 30
:FRAME-RANGE 1-663
:FULLY-SPECIFIED
:DEGREES
249
root  -24.7065 38.4029 110.039 -173.703 50.0093 -178.99
RightUpLeg  -10.7843 -6.33861 -1.79714
RightLeg  14.4082 5.14806 2.80276
RightFoot  -10.9208 -0.0884386 3.90024
RightToes  -3.4386e-010 1.2921e-014 -6.02303e-014
Spine  -2.73422 -4.27675 3.29289
Spine1  8.30046 -5.34935 2.91864
HEad  29.2498 -32.762 5.30246
LeftShoulder1  2.21947 -6.02002 -17.411
LeftArm  9.44742 -3.64102 -42.0442
LeftForeArm  -10.8753 -25.1317 -5.92106
LeftHand  0.352526 -1.9891 -5.39206
RightShoulder  1.80576 2.25656 26.4576
RightArm  -3.14005 12.3866 60.6717
RightForeArm  16.1132 23.145 4.18962
RightHand  -0.216088 -1.08174 -5.72422
LeftUpLeg  -21.1363 10.811 3.01326
LeftLeg  30.0324 13.328 8.52809
LeftFoot  -12.0184 0.0255993 -7.8278
LeftToes  -7.12384e-010 -7.51861e-011 -8.34901e-011
250
root  -24.5995 38.3831 109.734 -174.031 49.1446 -178.982
RightUpLeg  -10.0385 -6.56587 -2.03693
RightLeg  14.7539 4.58078 2.5542
RightFoot  -11.3082 -0.0778166 3.75721
RightToes  -3.4386e-010 1.2921e-014 -6.02303e-014
Spine  -2.95969 -4.26566 3.26895
Spine1  8.30789 -5.26558 2.62043
HEad  29.1445 -30.2718 5.00791
LeftShoulder1  2.20644 -5.89033 -17.6213
LeftArm  10.0531 -3.59271 -41.8327
LeftForeArm  -11.3927 -25.0885 -5.93564
LeftHand  0.351708 -1.89716 -5.45582
RightShoulder  1.78752 2.2282 26.2861
RightArm  -2.49378 11.8725 60.667
RightForeArm  15.4309 23.4169 4.23335
RightHand  -0.242794 -1.25969 -6.7069
LeftUpLeg  -21.2982 9.06626 5.06721
LeftLeg  27.7696 13.5198 7.93311
LeftFoot  -11.3778 0.0656261 -7.69499
LeftToes  -7.12384e-010 -7.51861e-011 -8.34901e-011
251
root  -24.5084 38.3614 109.409 -174.234 48.1197 -179.045
RightUpLeg  -9.49255 -6.97699 -2.36744
RightLeg  15.1719 3.92988 2.3624
RightFoot  -11.6707 -0.0690997 3.50145
RightToes  -3.4386e-010 1.2921e-014 -6.02303e-014
Spine  -3.3156 -4.20273 3.0001
Spine1  8.39694 -5.18165 2.51705
HEad  28.974 -27.7338 4.91436
LeftShoulder1  2.22641 -5.93148 -17.7399
LeftArm  10.3964 -3.51217 -41.7938
LeftForeArm  -11.5328 -25.0972 -5.94424
LeftHand  0.349224 -1.82914 -5.47381
RightShoulder  1.75869 2.15766 26.1679
RightArm  -2.30734 11.5315 60.66
RightForeArm  15.1841 23.3896 4.24448
RightHand  -0.229388 -1.35758 -6.4681
LeftUpLeg  -21.5757 7.50882 7.10582
LeftLeg  24.7468 12.6582 6.61624
LeftFoot  -9.85762 0.155081 -7.41333
LeftToes  -7.12384e-010 -7.51861e-011 -8.34901e-011
252
root  -24.4453 38.3428 109.05 -174.704 46.92 -179.426
RightUpLeg  -8.77773 -7.48278 -3.02357
RightLeg  15.4655 3.3474 2.13774
RightFoot  -12.2224 -0.0539698 3.76203
RightToes  -3.4386e-010 1.2921e-014 -6.02303e-014
Spine  -3.21467 -4.18816 2.17594
Spine1  8.06614 -5.22786 2.87123
HEad  28.7657 -25.1734 4.72007
LeftShoulder1  2.21463 -5.79189 -18.0004
LeftArm  11.3694 -3.7659 -41.6868
LeftForeArm  -12.6752 -25.0663 -5.99074
LeftHand  0.232622 -1.0128 -4.14047
RightShoulder  1.77301 2.22661 26.0212
RightArm  -2.3974 11.146 60.5109
RightForeArm  14.9344 23.3074 4.25331
RightHand  -0.240153 -1.37238 -6.80435
LeftUpLeg  -21.6824 5.42104 8.99607
LeftLeg  21.1156 11.5713 5.20627
LeftFoot  -7.86438 0.277686 -7.59048
LeftToes  -7.12384e-010 -7.51861e-011 -8.34901e-011
253
root  -24.4141 38.3187 108.629 -174.949 46.0016 -179.603
RightUpLeg  -8.12841 -8.02715 -3.6046
RightLeg  15.7384 3.07738 1.90107
RightFoot  -12.6966 -0.0384225 4.03123
RightToes  -3.4386e-010 1.2921e-014 -6.02303e-014
Spine  -3.25683 -4.03807 2.02428
Spine1  7.92988 -4.92915 2.26692
HEad  28.4661 -22.9711 4.90606
LeftShoulder1  2.2053 -5.81299 -17.8284
LeftArm  11.3227 -3.98271 -41.9902
LeftForeArm  -12.4767 -24.9343 -5.95107
LeftHand  0.274504 -1.16526 -4.77254
RightShoulder  1.78005 2.23439 26.1073
RightArm  -2.38448 10.7197 60.2071
RightForeArm  14.574 23.4523 4.28029
RightHand  -0.233308 -1.40608 -6.65633
LeftUpLeg  -21.7854 3.42585 11.0378
LeftLeg  17.4438 10.8208 4.10338
LeftFoot  -6.03138 0.397741 -7.79062
LeftToes  -7.12384e-010 -7.51861e-011 -8.34901e-011
254
root  -24.4341 38.2952 108.156 -175.37 44.8697 -179.873
RightUpLeg  -7.16454 -8.76149 -4.4658
RightLeg  15.7871 2.8461 1.7568
RightFoot  -13.1966 -0.0136014 4.68688
RightToes  -3.4386e-010 1.2921e-014 -6.02303e-014
Spine  -2.87089 -4.08731 1.44583
Spine1  7.68175 -4.93814 2.14264
HEad  28.1339 -20.8653 4.97129
LeftShoulder1  2.16778 -5.61414 -17.9566
LeftArm  11.5389 -4.7766 -42.1435
LeftForeArm  -12.6485 -24.5832 -5.87864
LeftHand  0.300481 -1.32368 -5.09399
RightShoulder  1.82846 2.4319 25.839
RightArm  -2.40224 10.478 60.1277
RightForeArm  14.2626 23.4336 4.29487
RightHand  -0.226904 -1.44053 -6.51994
LeftUpLeg  -21.8568 1.42773 12.7334
LeftLeg  13.939 10.4682 3.67208
LeftFoot  -4.91016 0.459033 -7.63987
LeftToes  -7.12384e-010 -7.51861e-011 -8.34901e-011
255
root  -24.4331 38.2638 107.644 -175.159 44.8526 -179.702
RightUpLeg  -6.52023 -8.73204 -4.90632
RightLeg  15.517 2.97304 1.52282
RightFoot  -13.5598 0.012767 5.40824
RightToes  -3.4386e-010 1.2921e-014 -6.02303e-014
Spine  -3.24257 -3.69414 1.393
Spine1  7.88364 -4.33375 1.29939
HEad  28.1315 -19.0249 4.99161
LeftShoulder1  2.15192 -5.5449 -17.9684
LeftArm  11.9361 -5.40182 -42.0022
LeftForeArm  -13.0445 -24.5833 -5.89705
LeftHand  0.291132 -1.15237 -5.07939
RightShoulder  1.83988 2.45589 25.9085
RightArm  -1.88885 10.3149 59.9843
RightForeArm  13.4825 23.5127 4.34264
RightHand  -0.249185 -1.50591 -7.29473
LeftUpLeg  -21.9881 3.07109 13.7448
LeftLeg  10.774 8.49198 3.74633
LeftFoot  -5.42459 0.405905 -7.21961
LeftToes  -7.12384e-010 -7.51861e-011 -8.34901e-011
256
root  -24.4757 38.1954 107.036 -175.33 44.2689 -179.699
RightUpLeg  -5.53934 -8.87112 -5.68387
RightLeg  15.5386 2.78495 1.22602
RightFoot  -14.2113 0.0633056 6.37244
RightToes  -3.4386e-010 1.2921e-014 -6.02303e-014
Spine  -3.22167 -3.60733 1.04481
Spine1  7.94086 -4.10467 0.776556
HEad  28.4411 -17.5284 4.84729
LeftShoulder1  2.17312 -5.67717 -17.8363
LeftArm  12.2143 -5.81845 -41.8725
LeftForeArm  -13.3609 -24.6582 -5.92881
LeftHand  0.291988 -1.07493 -5.16412
RightShoulder  1.83043 2.42413 25.9201
RightArm  -1.73904 10.0082 59.9697
RightForeArm  13.2408 23.818 4.40248
RightHand  -0.249789 -1.52964 -7.35505
LeftUpLeg  -22.1247 4.85557 14.1451
LeftLeg  8.11792 6.11319 4.04006
LeftFoot  -6.15656 0.352328 -6.96188
LeftToes  -7.12384e-010 -7.51861e-011 -8.34901e-011
257
root  -24.5441 38.0844 106.371 -175.216 44.083 -179.537
RightUpLeg  -4.90614 -9.12106 -6.48173
RightLeg  15.8313 3.12676 1.13742
RightFoot  -14.9429 0.130397 7.36614
RightToes  -3.4386e-010 1.2921e-014 -6.02303e-014
Spine  -3.29866 -3.49132 0.617185
Spine1  7.96921 -3.87976 0.405749
HEad  28.8442 -15.8507 4.63453
LeftShoulder1  2.14622 -5.58602 -17.7771
LeftArm  12.515 -6.26726 -41.6055
LeftForeArm  -13.5176 -24.7073 -5.9473
LeftHand  0.290123 -1.0781 -5.10844
RightShoulder  1.85064 2.48953 25.9099
RightArm  -1.56099 9.81541 60.0224
RightForeArm  12.8124 24.2649 4.52123
RightHand  -0.264228 -1.64091 -8.01174
LeftUpLeg  -22.455 6.54702 14.8001
LeftLeg  6.20234 3.61142 4.28513
LeftFoot  -6.91026 0.283659 -6.25822
LeftToes  -7.12384e-010 -7.51861e-011 -8.34901e-011
258
root  -24.6498 37.9325 105.606 -175.093 43.9943 -179.233
RightUpLeg  -4.13651 -8.94158 -7.34026
RightLeg  16.1929 3.13917 0.988629
RightFoot  -15.7729 0.226616 8.61238
RightToes  -3.4386e-010 1.2921e-014 -6.02303e-014
Spine  -3.18159 -3.4777 0.257744
Spine1  7.87005 -3.81308 0.231921
HEad  29.0185 -14.2206 4.47924
LeftShoulder1  2.04543 -5.14042 -17.8632
LeftArm  13.142 -6.80696 -41.1404
LeftForeArm  -13.9981 -24.9883 -6.03404
LeftHand  0.2924 -0.979922 -5.25924
RightShoulder  1.90537 2.70218 25.6864
RightArm  -1.34983 9.54256 60.2736
RightForeArm  12.6602 24.784 4.64197
RightHand  -0.268782 -1.71724 -8.31464
LeftUpLeg  -22.8144 7.3787 15.8115
LeftLeg  5.48478 1.87414 4.57851
LeftFoot  -8.30322 0.201292 -5.71187
LeftToes  -7.12384e-010 -7.51861e-011 -8.34901e-011
259
root  -24.8112 37.7248 104.736 -174.807 43.7062 -178.882
RightUpLeg  -3.52979 -9.08029 -8.40987
RightLeg  16.8179 3.36663 1.00599
RightFoot  -16.6753 0.353771 10.0059
RightToes  -3.4386e-010 1.2921e-014 -6.02303e-014
Spine  -3.27279 -3.45266 -0.0109454
Spine1  7.83448 -3.74135 0.0471466
HEad  29.1327 -13.0808 4.39348
LeftShoulder1  2.02779 -5.15494 -17.592
LeftArm  13.3567 -7.27162 -41.068
LeftForeArm  -14.31 -25.0356 -6.05928
LeftHand  0.296084 -0.996125 -5.31131
RightShoulder  1.87927 2.63087 25.6226
RightArm  -0.901951 9.07109 60.3206
RightForeArm  12.3131 25.6847 4.85862
RightHand  -0.266839 -1.94094 -8.76049
LeftUpLeg  -23.4896 7.85057 16.8208
LeftLeg  5.73518 1.17283 4.67188
LeftFoot  -9.23944 0.148907 -5.0974
LeftToes  -7.12384e-010 -7.51861e-011 -8.34901e-011
